<?xml version="1.0" encoding="utf-8"?>
<!-- Generator: Adobe Illustrator 24.0.1, SVG Export Plug-In . SVG Version: 6.00 Build 0)  -->
<svg version="1.1" id="图层_1" xmlns="http://www.w3.org/2000/svg" xmlns:xlink="http://www.w3.org/1999/xlink" x="0px" y="0px"
	 viewBox="0 0 200 100" style="enable-background:new 0 0 200 100;" xml:space="preserve">
<style type="text/css">
	.st0{enable-background:new    ;}
</style>
<g class="st0">
	<path d="M39,65.7c0-2.6-0.9-4.7-2.8-6.1c-1.9-1.4-5.2-2.9-10-4.5c-4.8-1.6-8.7-3.1-11.5-4.6C7,46.4,3.1,40.8,3.1,33.8
		c0-3.7,1-6.9,3.1-9.8c2.1-2.9,5-5.1,8.9-6.7c3.9-1.6,8.2-2.4,13-2.4c4.8,0,9.1,0.9,12.9,2.6c3.8,1.8,6.7,4.2,8.8,7.4
		c2.1,3.2,3.1,6.8,3.1,10.9H39c0-3.1-1-5.5-2.9-7.2c-2-1.7-4.7-2.6-8.2-2.6c-3.4,0-6.1,0.7-7.9,2.2s-2.8,3.3-2.8,5.7
		c0,2.2,1.1,4,3.3,5.5c2.2,1.5,5.5,2.9,9.8,4.2c7.9,2.4,13.7,5.3,17.3,8.9c3.6,3.5,5.4,7.9,5.4,13.2c0,5.9-2.2,10.5-6.6,13.8
		c-4.4,3.3-10.4,5-17.9,5c-5.2,0-9.9-1-14.2-2.9c-4.3-1.9-7.5-4.5-9.8-7.8C2.2,70.4,1,66.5,1,62.2h14c0,7.5,4.5,11.2,13.4,11.2
		c3.3,0,5.9-0.7,7.8-2C38,70,39,68.1,39,65.7z"/>
	<path d="M77.2,83.5H63.3V15.8h13.9V83.5z"/>
</g>
<g class="st0">
	<path d="M124,83.5h-13.9V15.8H124V83.5z"/>
	<path d="M151.8,83.5h-13.9V15.8h13.9V83.5z"/>
	<path d="M179.5,83.5h-13.9V15.8h13.9V83.5z"/>
</g>
<circle cx="97.1" cy="76.8" r="6.7"/>
<g>
	<circle cx="192.5" cy="76.8" r="6.7"/>
	<circle cx="192.5" cy="50" r="6.7"/>
	<circle cx="192.5" cy="23.2" r="6.7"/>
</g>
</svg>
